<?xml version="1.0" encoding="UTF-8"?> <svg xmlns="http://www.w3.org/2000/svg" id="Groupe_212" data-name="Groupe 212" width="68.875" height="68.304" viewBox="0 0 68.875 68.304"><path id="Tracé_3482" data-name="Tracé 3482" d="M440.417,97.28,468.37,107.8V61.877Z" transform="translate(-435.018 -61.877)" fill="#fff" opacity="0.36"></path><path id="Tracé_3483" data-name="Tracé 3483" d="M544.847,97.981l-30.67,9.814V61.877Z" transform="translate(-480.836 -61.877)" fill="#fff"></path><g id="Groupe_210" data-name="Groupe 210" transform="translate(0.969 50.894)"><path id="Tracé_3484" data-name="Tracé 3484" d="M437.865,205.6l-1.033,1.077-1.121-1.071a4.468,4.468,0,0,1-1.344.516,5.055,5.055,0,0,1-2.822-.185,3.985,3.985,0,0,1-1.912-1.418,6.432,6.432,0,0,1-.014-6.57,4,4,0,0,1,1.922-1.418,5.076,5.076,0,0,1,3.462,0,4.017,4.017,0,0,1,1.909,1.418,5.505,5.505,0,0,1,.9,3.284,6.835,6.835,0,0,1-.25,1.967,4.219,4.219,0,0,1-.722,1.424Zm-4.482-2.192,1.027-1.074,1,.941a3.679,3.679,0,0,0,.309-.894,5.361,5.361,0,0,0,.112-1.147,3.608,3.608,0,0,0-.869-2.662,2.3,2.3,0,0,0-1.685-.662,2.329,2.329,0,0,0-1.685.662,4.435,4.435,0,0,0-.013,5.326,2.345,2.345,0,0,0,1.7.662,2.506,2.506,0,0,0,.547-.06,2.052,2.052,0,0,0,.519-.191Z" transform="translate(-428.724 -196.225)" fill="#fff"></path><path id="Tracé_3485" data-name="Tracé 3485" d="M464.581,196.924V203.1a3.414,3.414,0,0,1-1.038,2.725,4.18,4.18,0,0,1-2.825.847,4.991,4.991,0,0,1-1.511-.212,3.381,3.381,0,0,1-1.5-.939,3.422,3.422,0,0,1-.736-2.3v-6.3h2.014v6.163a1.948,1.948,0,0,0,.474,1.422,1.625,1.625,0,0,0,1.211.483,1.97,1.97,0,0,0,1.448-.463,1.831,1.831,0,0,0,.461-1.348v-6.256Z" transform="translate(-446.272 -196.659)" fill="#fff"></path><path id="Tracé_3486" data-name="Tracé 3486" d="M483.255,204.461l-.646,1.96h-2.08l3.386-9.5H486.2l3.3,9.5h-2.146l-.618-1.96Zm.539-1.643H486.2l-1.185-3.749Z" transform="translate(-460.905 -196.659)" fill="#fff"></path><path id="Tracé_3487" data-name="Tracé 3487" d="M509.781,196.924V204.7h4.7v1.722h-6.673v-9.5Z" transform="translate(-477.848 -196.659)" fill="#fff"></path><path id="Tracé_3488" data-name="Tracé 3488" d="M530.836,196.924v9.5h-1.974v-9.5Z" transform="translate(-490.927 -196.659)" fill="#fff"></path><path id="Tracé_3489" data-name="Tracé 3489" d="M539.184,206.422v-9.5h4.593a2.969,2.969,0,0,1,2.317.845,2.3,2.3,0,0,1,.591,1.585,2.107,2.107,0,0,1-.434,1.4,2.435,2.435,0,0,1-.737.542,2.111,2.111,0,0,1,1.158.953,2.805,2.805,0,0,1,.3,1.352,2.743,2.743,0,0,1-1.763,2.583,6.619,6.619,0,0,1-2.028.238Zm1.881-7.855.014,2.066H543.4a1.764,1.764,0,0,0,.987-.237.921.921,0,0,0,.408-.816.844.844,0,0,0-.382-.776,2.052,2.052,0,0,0-1.079-.237Zm0,3.67.014,2.543H543.5a1.669,1.669,0,0,0,1.125-.338,1.324,1.324,0,0,0,.388-1.054.975.975,0,0,0-.421-.867,1.766,1.766,0,0,0-1.014-.285Z" transform="translate(-497.339 -196.659)" fill="#fff"></path><path id="Tracé_3490" data-name="Tracé 3490" d="M565.29,204.461l-.645,1.96h-2.08l3.386-9.5h2.288l3.3,9.5H569.4l-.619-1.96Zm.54-1.643h2.408l-1.184-3.749Z" transform="translate(-511.863 -196.659)" fill="#fff"></path><path id="Tracé_3491" data-name="Tracé 3491" d="M592.517,198.607v7.815h-1.974v-7.815h-2.857v-1.683h7.687v1.683Z" transform="translate(-527.467 -196.659)" fill="#fff"></path></g><g id="Groupe_211" data-name="Groupe 211" transform="translate(0 62.128)"><path id="Tracé_3492" data-name="Tracé 3492" d="M430.7,227.458l-2.276,5.577-2.262-5.577h.65l1.612,4.114,1.626-4.114Z" transform="translate(-426.166 -226.86)" fill="#fff"></path><path id="Tracé_3493" data-name="Tracé 3493" d="M441.148,234.422a1.745,1.745,0,0,1-.521,1.275,1.719,1.719,0,0,1-1.269.526,1.7,1.7,0,0,1-1.257-.524,1.755,1.755,0,0,1-.516-1.277,1.745,1.745,0,0,1,1.773-1.775,1.742,1.742,0,0,1,1.274.513A1.71,1.71,0,0,1,441.148,234.422Zm-.569,0a1.191,1.191,0,0,0-1.214-1.225,1.171,1.171,0,0,0-.864.347,1.191,1.191,0,0,0-.346.878,1.224,1.224,0,0,0,.352.893,1.212,1.212,0,0,0,1.723,0A1.231,1.231,0,0,0,440.579,234.422Z" transform="translate(-433.26 -230.083)" fill="#fff"></path><path id="Tracé_3494" data-name="Tracé 3494" d="M449.522,231.2h-.531v2.847h-.57V231.2h-.4v-.517h.4v-1.362h.57v1.362h.531Z" transform="translate(-439.741 -228.019)" fill="#fff"></path><path id="Tracé_3495" data-name="Tracé 3495" d="M455.569,232.712l-.136.57a.493.493,0,0,0-.137-.058.6.6,0,0,0-.157-.02.7.7,0,0,0-.638.365,2.185,2.185,0,0,0-.215,1.088v1.457h-.57V232.75h.57v.591a.906.906,0,0,1,.968-.694.936.936,0,0,1,.177.019A.55.55,0,0,1,455.569,232.712Z" transform="translate(-443.279 -230.083)" fill="#fff"></path><path id="Tracé_3496" data-name="Tracé 3496" d="M462.1,234.521H459.41a1.284,1.284,0,0,0,.32.846,1.021,1.021,0,0,0,.771.3,1.244,1.244,0,0,0,.624-.146,1.022,1.022,0,0,0,.407-.438l.479.254a1.618,1.618,0,0,1-.613.663,1.757,1.757,0,0,1-.9.223,1.547,1.547,0,0,1-1.2-.5,1.881,1.881,0,0,1-.45-1.313,1.767,1.767,0,0,1,.476-1.264,1.649,1.649,0,0,1,2.332-.042,1.664,1.664,0,0,1,.448,1.211Zm-.57-.408a.994.994,0,0,0-.322-.675,1.055,1.055,0,0,0-.717-.241,1.07,1.07,0,0,0-.717.249,1,1,0,0,0-.346.667Z" transform="translate(-446.462 -230.083)" fill="#fff"></path><path id="Tracé_3497" data-name="Tracé 3497" d="M476.1,232.049h-.57V226.1h.57Z" transform="translate(-456.832 -226.019)" fill="#fff"></path><path id="Tracé_3498" data-name="Tracé 3498" d="M482.549,236.114h-.574v-.556a1.18,1.18,0,0,1-.481.494,1.483,1.483,0,0,1-.729.17,1.465,1.465,0,0,1-1.15-.51,1.9,1.9,0,0,1-.451-1.305,1.8,1.8,0,0,1,.453-1.269,1.511,1.511,0,0,1,1.162-.492,1.53,1.53,0,0,1,.71.16,1.188,1.188,0,0,1,.486.454v-.511h.574Zm-.574-1.721a1.23,1.23,0,0,0-.3-.875,1.164,1.164,0,0,0-1.619.012,1.241,1.241,0,0,0-.314.884,1.313,1.313,0,0,0,.308.9,1,1,0,0,0,.79.349,1.052,1.052,0,0,0,.813-.357A1.315,1.315,0,0,0,481.976,234.394Z" transform="translate(-459.088 -230.083)" fill="#fff"></path><path id="Tracé_3499" data-name="Tracé 3499" d="M494.212,230.342a1.9,1.9,0,0,1-.451,1.305,1.47,1.47,0,0,1-1.154.51,1.488,1.488,0,0,1-.727-.17,1.179,1.179,0,0,1-.482-.494v.556h-.574V226.1h.574V229.2a1.215,1.215,0,0,1,.489-.454,1.632,1.632,0,0,1,1.872.332A1.8,1.8,0,0,1,494.212,230.342Zm-.58.008a1.248,1.248,0,0,0-.311-.884,1.166,1.166,0,0,0-1.621-.012,1.227,1.227,0,0,0-.3.875,1.315,1.315,0,0,0,.323.917,1.056,1.056,0,0,0,.816.357,1,1,0,0,0,.787-.349A1.313,1.313,0,0,0,493.632,230.35Z" transform="translate(-466.33 -226.019)" fill="#fff"></path><path id="Tracé_3500" data-name="Tracé 3500" d="M504.374,234.521h-2.685a1.282,1.282,0,0,0,.32.846,1.019,1.019,0,0,0,.771.3,1.247,1.247,0,0,0,.625-.146,1.024,1.024,0,0,0,.407-.438l.479.254a1.615,1.615,0,0,1-.613.663,1.755,1.755,0,0,1-.9.223,1.547,1.547,0,0,1-1.2-.5,1.881,1.881,0,0,1-.449-1.313,1.767,1.767,0,0,1,.475-1.264,1.649,1.649,0,0,1,2.332-.042,1.667,1.667,0,0,1,.447,1.211Zm-.57-.408a1,1,0,0,0-.322-.675,1.055,1.055,0,0,0-.717-.241,1.068,1.068,0,0,0-.717.249.993.993,0,0,0-.346.667Z" transform="translate(-472.725 -230.083)" fill="#fff"></path><path id="Tracé_3501" data-name="Tracé 3501" d="M512.333,232.049h-.569V226.1h.569Z" transform="translate(-479.337 -226.019)" fill="#fff"></path><path id="Tracé_3502" data-name="Tracé 3502" d="M524.734,232.049h-.573v-.556a1.178,1.178,0,0,1-.481.494,1.486,1.486,0,0,1-.73.17,1.468,1.468,0,0,1-1.15-.51,1.9,1.9,0,0,1-.45-1.305,1.8,1.8,0,0,1,.453-1.269,1.511,1.511,0,0,1,1.162-.492,1.531,1.531,0,0,1,.71.16,1.2,1.2,0,0,1,.486.454V226.1h.573Zm-.573-1.721a1.229,1.229,0,0,0-.3-.875,1.163,1.163,0,0,0-1.618.012,1.24,1.24,0,0,0-.314.884,1.313,1.313,0,0,0,.308.9,1,1,0,0,0,.789.349,1.055,1.055,0,0,0,.814-.357A1.318,1.318,0,0,0,524.161,230.329Z" transform="translate(-485.292 -226.019)" fill="#fff"></path><path id="Tracé_3503" data-name="Tracé 3503" d="M535.646,234.521h-2.685a1.275,1.275,0,0,0,.32.846,1.019,1.019,0,0,0,.771.3,1.244,1.244,0,0,0,.624-.146,1.019,1.019,0,0,0,.407-.438l.479.254a1.622,1.622,0,0,1-.613.663,1.761,1.761,0,0,1-.9.223,1.549,1.549,0,0,1-1.2-.5,1.882,1.882,0,0,1-.449-1.313,1.768,1.768,0,0,1,.475-1.264,1.649,1.649,0,0,1,2.332-.042,1.665,1.665,0,0,1,.448,1.211Zm-.57-.408a1,1,0,0,0-.321-.675,1.056,1.056,0,0,0-.717-.241,1.07,1.07,0,0,0-.717.249,1,1,0,0,0-.346.667Z" transform="translate(-492.151 -230.083)" fill="#fff"></path><path id="Tracé_3504" data-name="Tracé 3504" d="M549.919,226.453a.692.692,0,0,0-.133-.045.621.621,0,0,0-.15-.017.334.334,0,0,0-.339.181,1.857,1.857,0,0,0-.085.684v1.291h.679v.517h-.679v2.847h-.573v-2.847h-.4v-.517h.4v-1.3a1.941,1.941,0,0,1,.213-1.047.8.8,0,0,1,.711-.314,1.45,1.45,0,0,1,.193.012.819.819,0,0,1,.163.037Z" transform="translate(-501.998 -225.88)" fill="#fff"></path><path id="Tracé_3505" data-name="Tracé 3505" d="M554.8,228.766a.376.376,0,0,1-.117.278.381.381,0,0,1-.278.116.376.376,0,0,1-.276-.116.382.382,0,0,1-.115-.278.388.388,0,0,1,.115-.28.371.371,0,0,1,.276-.118.377.377,0,0,1,.278.118A.382.382,0,0,1,554.8,228.766Zm-.108,4.69h-.574v-3.364h.574Z" transform="translate(-505.583 -227.425)" fill="#fff"></path><path id="Tracé_3506" data-name="Tracé 3506" d="M561.427,236.114h-.574v-.556a1.175,1.175,0,0,1-.481.494,1.485,1.485,0,0,1-.729.17,1.465,1.465,0,0,1-1.15-.51,1.9,1.9,0,0,1-.451-1.305,1.8,1.8,0,0,1,.453-1.269,1.632,1.632,0,0,1,1.872-.332,1.189,1.189,0,0,1,.486.454v-.511h.574Zm-.574-1.721a1.226,1.226,0,0,0-.3-.875,1.053,1.053,0,0,0-.805-.322,1.064,1.064,0,0,0-.813.334,1.243,1.243,0,0,0-.314.884,1.311,1.311,0,0,0,.308.9,1,1,0,0,0,.79.349,1.051,1.051,0,0,0,.813-.357A1.314,1.314,0,0,0,560.853,234.394Z" transform="translate(-508.084 -230.083)" fill="#fff"></path><path id="Tracé_3507" data-name="Tracé 3507" d="M573.089,230.342a1.9,1.9,0,0,1-.45,1.305,1.472,1.472,0,0,1-1.154.51,1.487,1.487,0,0,1-.727-.17,1.175,1.175,0,0,1-.482-.494v.556H569.7V226.1h.574V229.2a1.209,1.209,0,0,1,.489-.454,1.632,1.632,0,0,1,1.872.332A1.8,1.8,0,0,1,573.089,230.342Zm-.58.008a1.247,1.247,0,0,0-.312-.884,1.165,1.165,0,0,0-1.62-.012,1.227,1.227,0,0,0-.3.875,1.312,1.312,0,0,0,.323.917,1.053,1.053,0,0,0,.816.357,1,1,0,0,0,.787-.349A1.314,1.314,0,0,0,572.51,230.35Z" transform="translate(-515.327 -226.019)" fill="#fff"></path><path id="Tracé_3508" data-name="Tracé 3508" d="M581.382,228.766a.393.393,0,1,1-.786,0,.386.386,0,0,1,.115-.28.372.372,0,0,1,.277-.118.377.377,0,0,1,.278.118A.384.384,0,0,1,581.382,228.766Zm-.108,4.69H580.7v-3.364h.574Z" transform="translate(-522.094 -227.425)" fill="#fff"></path><path id="Tracé_3509" data-name="Tracé 3509" d="M586.218,232.049h-.569V226.1h.569Z" transform="translate(-525.233 -226.019)" fill="#fff"></path><path id="Tracé_3510" data-name="Tracé 3510" d="M590.895,228.766a.377.377,0,0,1-.117.278.381.381,0,0,1-.277.116.375.375,0,0,1-.277-.116.381.381,0,0,1-.116-.278.386.386,0,0,1,.116-.28.371.371,0,0,1,.277-.118.376.376,0,0,1,.277.118A.382.382,0,0,1,590.895,228.766Zm-.109,4.69h-.572v-3.364h.572Z" transform="translate(-528.003 -227.425)" fill="#fff"></path><path id="Tracé_3511" data-name="Tracé 3511" d="M595.639,231.2h-.531v2.847h-.57V231.2h-.4v-.517h.4v-1.362h.57v1.362h.531Z" transform="translate(-530.505 -228.019)" fill="#fff"></path><path id="Tracé_3512" data-name="Tracé 3512" d="M602.295,231.92H599.61a1.275,1.275,0,0,0,.32.846,1.017,1.017,0,0,0,.771.3,1.244,1.244,0,0,0,.624-.146,1.016,1.016,0,0,0,.407-.438l.479.254a1.617,1.617,0,0,1-.613.663,1.76,1.76,0,0,1-.9.223,1.549,1.549,0,0,1-1.2-.5,1.882,1.882,0,0,1-.449-1.313,1.767,1.767,0,0,1,.475-1.264,1.649,1.649,0,0,1,2.332-.042,1.662,1.662,0,0,1,.448,1.211Zm-.57-.408a1,1,0,0,0-.322-.675,1.054,1.054,0,0,0-.717-.241,1.069,1.069,0,0,0-.716.249,1,1,0,0,0-.347.667Zm-.259-2.71-1.025.95-.213-.233.936-1.059Z" transform="translate(-533.551 -227.483)" fill="#fff"></path></g></svg> 